<svg xmlns="http://www.w3.org/2000/svg" xmlns:xlink="http://www.w3.org/1999/xlink" width="3780" zoomAndPan="magnify" viewBox="0 0 2835 1417.499962" height="1890" preserveAspectRatio="xMidYMid meet" version="1.2"><defs><clipPath id="135e475b27"><path d="M 33.199219 648 L 993.011719 648 L 993.011719 770 L 33.199219 770 Z M 33.199219 648 "/></clipPath><clipPath id="4e0338be40"><path d="M 33.199219 929 L 993.011719 929 L 993.011719 1050.5625 L 33.199219 1050.5625 Z M 33.199219 929 "/></clipPath><clipPath id="bd945d3dcf"><path d="M 33.199219 367.507812 L 993.011719 367.507812 L 993.011719 489 L 33.199219 489 Z M 33.199219 367.507812 "/></clipPath></defs><g id="ccfff9829b"><g clip-rule="nonzero" clip-path="url(#135e475b27)"><path style=" stroke:none;fill-rule:nonzero;fill:#000000;fill-opacity:1;" d="M 933.023438 648.800781 L 93.1875 648.800781 C 60.054688 648.800781 33.199219 675.765625 33.199219 709.035156 C 33.199219 742.304688 60.054688 769.269531 93.1875 769.269531 L 933.023438 769.269531 C 966.15625 769.269531 993.011719 742.304688 993.011719 709.035156 C 993.011719 675.765625 966.15625 648.800781 933.023438 648.800781 Z M 933.023438 648.800781 "/></g><g clip-rule="nonzero" clip-path="url(#4e0338be40)"><path style=" stroke:none;fill-rule:nonzero;fill:#000000;fill-opacity:1;" d="M 933.023438 929.898438 L 93.1875 929.898438 C 60.054688 929.898438 33.199219 956.863281 33.199219 990.132812 C 33.199219 1023.402344 60.054688 1050.367188 93.1875 1050.367188 L 933.023438 1050.367188 C 966.15625 1050.367188 993.011719 1023.402344 993.011719 990.132812 C 993.011719 956.863281 966.15625 929.898438 933.023438 929.898438 Z M 933.023438 929.898438 "/></g><g clip-rule="nonzero" clip-path="url(#bd945d3dcf)"><path style=" stroke:none;fill-rule:nonzero;fill:#000000;fill-opacity:1;" d="M 93.1875 488.171875 L 933.023438 488.171875 C 966.15625 488.171875 993.011719 461.207031 993.011719 427.9375 C 993.011719 394.667969 966.15625 367.703125 933.023438 367.703125 L 93.1875 367.703125 C 60.054688 367.703125 33.199219 394.667969 33.199219 427.9375 C 33.199219 461.207031 60.054688 488.171875 93.1875 488.171875 Z M 93.1875 488.171875 "/></g><g style="fill:#000000;fill-opacity:1;"><g transform="translate(1185.109679, 976.422955)"><path style="stroke:none" d="M 587.453125 -23.96875 C 586.421875 -18.8125 582.941406 -14.941406 577.015625 -12.359375 C 571.085938 -9.785156 564.515625 -8.753906 557.296875 -9.265625 C 550.085938 -9.785156 543.90625 -11.59375 538.75 -14.6875 C 533.601562 -17.78125 531.03125 -22.414062 531.03125 -28.59375 C 531.539062 -38.382812 533.34375 -52.425781 536.4375 -70.71875 C 539.53125 -89.019531 543.007812 -109.632812 546.875 -132.5625 C 550.738281 -155.5 554.34375 -178.6875 557.6875 -202.125 C 561.039062 -225.570312 563.101562 -247.34375 563.875 -267.4375 C 564.65625 -287.539062 563.367188 -303.90625 560.015625 -316.53125 C 556.660156 -329.15625 550.347656 -335.722656 541.078125 -336.234375 C 533.347656 -336.753906 524.328125 -331.085938 514.015625 -319.234375 C 503.710938 -307.378906 492.632812 -291.273438 480.78125 -270.921875 C 468.9375 -250.566406 456.570312 -228.019531 443.6875 -203.28125 C 430.800781 -178.550781 418.175781 -153.816406 405.8125 -129.078125 L 380.296875 -68.015625 C 378.753906 -64.410156 377.207031 -62.351562 375.65625 -61.84375 C 372.050781 -60.8125 365.609375 -60.421875 356.328125 -60.671875 C 347.054688 -60.929688 337.265625 -62.09375 326.953125 -64.15625 C 316.648438 -66.21875 307.890625 -69.179688 300.671875 -73.046875 C 293.460938 -76.910156 289.859375 -81.675781 289.859375 -87.34375 C 289.859375 -91.46875 291.144531 -101.773438 293.71875 -118.265625 C 296.300781 -134.753906 299.265625 -154.722656 302.609375 -178.171875 C 305.960938 -201.617188 309.054688 -226.09375 311.890625 -251.59375 C 314.722656 -277.101562 316.65625 -301.066406 317.6875 -323.484375 C 318.71875 -345.898438 317.941406 -364.066406 315.359375 -377.984375 C 312.785156 -391.898438 307.632812 -398.859375 299.90625 -398.859375 C 292.175781 -398.859375 282.382812 -392.15625 270.53125 -378.75 C 258.6875 -365.351562 245.804688 -347.445312 231.890625 -325.03125 C 217.972656 -302.613281 203.414062 -277.617188 188.21875 -250.046875 C 173.019531 -222.484375 158.203125 -194.398438 143.765625 -165.796875 C 129.335938 -137.203125 115.679688 -109.890625 102.796875 -83.859375 C 89.921875 -57.835938 78.84375 -35.296875 69.5625 -16.234375 C 66.46875 -9.535156 63.117188 -3.738281 59.515625 1.15625 C 55.910156 6.050781 53.332031 7.984375 51.78125 6.953125 C 51.78125 7.472656 51.78125 7.734375 51.78125 7.734375 C 51.78125 7.734375 48.816406 8.375 42.890625 9.65625 C 36.972656 10.945312 30.535156 10.816406 23.578125 9.265625 C 16.617188 7.722656 11.335938 2.570312 7.734375 -6.1875 C 10.304688 -39.675781 14.164062 -74.585938 19.3125 -110.921875 C 24.46875 -147.253906 30.140625 -183.328125 36.328125 -219.140625 C 42.515625 -254.953125 48.441406 -288.960938 54.109375 -321.171875 C 59.773438 -353.378906 64.15625 -382.109375 67.25 -407.359375 C 70.34375 -432.609375 73.820312 -450.898438 77.6875 -462.234375 C 81.550781 -473.566406 85.671875 -480.78125 90.046875 -483.875 C 94.429688 -486.96875 98.941406 -488 103.578125 -486.96875 C 108.210938 -485.9375 112.847656 -485.421875 117.484375 -485.421875 C 126.765625 -485.421875 133.460938 -483.875 137.578125 -480.78125 C 141.703125 -477.695312 141.707031 -466.363281 137.59375 -446.78125 C 134.5 -432.351562 131.144531 -413.929688 127.53125 -391.515625 C 123.925781 -369.097656 120.0625 -345.132812 115.9375 -319.625 C 111.820312 -294.113281 107.832031 -269.765625 103.96875 -246.578125 C 100.101562 -223.390625 96.625 -203.804688 93.53125 -187.828125 C 100.226562 -204.316406 109.242188 -224.410156 120.578125 -248.109375 C 131.921875 -271.816406 144.804688 -296.164062 159.234375 -321.15625 C 173.660156 -346.15625 189.503906 -369.347656 206.765625 -390.734375 C 224.023438 -412.117188 242.1875 -429.378906 261.25 -442.515625 C 280.320312 -455.660156 300.164062 -461.71875 320.78125 -460.6875 C 340.363281 -459.65625 354.535156 -449.476562 363.296875 -430.15625 C 372.054688 -410.832031 376.953125 -385.320312 377.984375 -353.625 C 379.015625 -321.9375 377.46875 -287.023438 373.34375 -248.890625 C 369.21875 -210.765625 363.550781 -172.632812 356.34375 -134.5 C 355.820312 -132.4375 355.945312 -133.722656 356.71875 -138.359375 C 357.5 -142.992188 358.273438 -147.757812 359.046875 -152.65625 C 359.816406 -157.550781 359.945312 -158.710938 359.4375 -156.140625 C 383.132812 -209.210938 406.832031 -254.816406 430.53125 -292.953125 C 454.238281 -331.085938 477.429688 -359.6875 500.109375 -378.75 C 522.785156 -397.820312 544.171875 -405.296875 564.265625 -401.171875 C 583.847656 -397.566406 598.40625 -386.742188 607.9375 -368.703125 C 617.46875 -350.671875 623.265625 -328.640625 625.328125 -302.609375 C 627.390625 -276.585938 627.003906 -248.890625 624.171875 -219.515625 C 621.335938 -190.148438 617.34375 -161.9375 612.1875 -134.875 C 607.039062 -107.820312 602.019531 -84.375 597.125 -64.53125 C 592.226562 -44.695312 589.003906 -31.175781 587.453125 -23.96875 Z M 587.453125 -23.96875 "/></g></g><g style="fill:#000000;fill-opacity:1;"><g transform="translate(1855.254402, 976.422955)"><path style="stroke:none" d="M 159.234375 -57.203125 C 162.835938 -55.648438 163.609375 -52.554688 161.546875 -47.921875 C 153.304688 -34.003906 141.582031 -21.894531 126.375 -11.59375 C 111.175781 -1.289062 94.816406 4.890625 77.296875 6.953125 C 59.773438 9.015625 43.023438 5.148438 27.046875 -4.640625 C 12.109375 -13.910156 0.519531 -26.921875 -7.71875 -43.671875 C -15.96875 -60.421875 -18.546875 -86.054688 -15.453125 -120.578125 C -12.367188 -148.410156 -4.515625 -170.957031 8.109375 -188.21875 C 20.734375 -205.476562 35.546875 -217.84375 52.546875 -225.3125 C 69.554688 -232.789062 85.796875 -235.753906 101.265625 -234.203125 C 112.597656 -233.691406 123.546875 -230.34375 134.109375 -224.15625 C 144.671875 -217.976562 152.140625 -208.578125 156.515625 -195.953125 C 160.898438 -183.328125 158.972656 -166.707031 150.734375 -146.09375 C 146.085938 -134.238281 137.320312 -122.640625 124.4375 -111.296875 C 111.5625 -99.960938 97.648438 -90.429688 82.703125 -82.703125 C 67.765625 -74.972656 54.625 -70.335938 43.28125 -68.796875 C 44.832031 -62.097656 47.410156 -56.039062 51.015625 -50.625 C 54.617188 -45.21875 59.769531 -41.226562 66.46875 -38.65625 C 75.226562 -35.039062 85.40625 -36.320312 97 -42.5 C 108.601562 -48.6875 119.296875 -57.453125 129.078125 -68.796875 C 131.660156 -71.890625 134.5 -72.40625 137.59375 -70.34375 Z M 112.078125 -190.15625 C 106.921875 -193.757812 99.0625 -193.5 88.5 -189.375 C 77.9375 -185.25 68.015625 -177.644531 58.734375 -166.5625 C 49.460938 -155.488281 44.054688 -141.191406 42.515625 -123.671875 C 42.515625 -122.128906 42.382812 -120.710938 42.125 -119.421875 C 41.863281 -118.128906 41.734375 -116.710938 41.734375 -115.171875 C 60.285156 -121.359375 75.875 -129.601562 88.5 -139.90625 C 101.125 -150.207031 109.625 -160.253906 114 -170.046875 C 118.382812 -179.835938 117.742188 -186.539062 112.078125 -190.15625 Z M 112.078125 -190.15625 "/></g></g><g style="fill:#000000;fill-opacity:1;"><g transform="translate(2076.317333, 976.422955)"><path style="stroke:none" d="M 154.59375 -202.515625 C 162.84375 -201.484375 171.347656 -197.742188 180.109375 -191.296875 C 188.867188 -184.859375 195.953125 -175.195312 201.359375 -162.3125 C 206.765625 -149.4375 208.4375 -132.691406 206.375 -112.078125 C 204.320312 -81.671875 201.234375 -55.773438 197.109375 -34.390625 C 192.984375 -13.003906 189.632812 -1.796875 187.0625 -0.765625 C 184.476562 0.253906 179.191406 0.125 171.203125 -1.15625 C 163.222656 -2.445312 155.625 -4.507812 148.40625 -7.34375 C 141.195312 -10.175781 137.59375 -13.394531 137.59375 -17 C 137.59375 -19.0625 138.492188 -24.988281 140.296875 -34.78125 C 142.097656 -44.570312 144.15625 -56.164062 146.46875 -69.5625 C 148.789062 -82.96875 150.597656 -96.109375 151.890625 -108.984375 C 153.179688 -121.867188 153.4375 -132.945312 152.65625 -142.21875 C 151.882812 -151.5 149.4375 -156.65625 145.3125 -157.6875 C 140.164062 -159.226562 131.796875 -154.71875 120.203125 -144.15625 C 108.609375 -133.59375 96.238281 -119.9375 83.09375 -103.1875 C 69.957031 -86.4375 57.847656 -69.046875 46.765625 -51.015625 C 35.679688 -32.984375 27.820312 -17.265625 23.1875 -3.859375 C 22.675781 -1.285156 21.390625 -0.515625 19.328125 -1.546875 C 19.328125 -1.546875 15.71875 -1.414062 8.5 -1.15625 C 1.289062 -0.894531 -6.304688 -1.535156 -14.296875 -3.078125 C -22.285156 -4.628906 -27.050781 -7.46875 -28.59375 -11.59375 C -27.050781 -32.71875 -24.601562 -55.003906 -21.25 -78.453125 C -17.90625 -101.898438 -14.171875 -124.570312 -10.046875 -146.46875 C -5.921875 -168.375 -2.570312 -187.054688 0 -202.515625 C 3.09375 -221.066406 6.695312 -232.015625 10.8125 -235.359375 C 14.9375 -238.710938 19.320312 -240.390625 23.96875 -240.390625 C 42 -239.878906 53.078125 -238.460938 57.203125 -236.140625 C 61.328125 -233.816406 62.359375 -227.765625 60.296875 -217.984375 C 57.710938 -204.578125 54.875 -190.015625 51.78125 -174.296875 C 48.695312 -158.585938 45.863281 -143.257812 43.28125 -128.3125 C 51.53125 -142.226562 61.96875 -155.109375 74.59375 -166.953125 C 87.21875 -178.804688 100.484375 -188.210938 114.390625 -195.171875 C 128.304688 -202.128906 141.707031 -204.578125 154.59375 -202.515625 Z M 154.59375 -202.515625 "/></g></g><g style="fill:#000000;fill-opacity:1;"><g transform="translate(2344.529818, 976.422955)"><path style="stroke:none" d="M 288.3125 -77.296875 C 289.863281 -78.835938 292.695312 -78.0625 296.8125 -74.96875 C 300.9375 -71.882812 304.929688 -67.894531 308.796875 -63 C 312.660156 -58.101562 315.238281 -53.078125 316.53125 -47.921875 C 317.820312 -42.765625 316.144531 -38.644531 311.5 -35.5625 C 301.195312 -28.34375 287.800781 -20.738281 271.3125 -12.75 C 254.820312 -4.757812 236.785156 -0.507812 217.203125 0 C 201.742188 0 189.632812 -3.992188 180.875 -11.984375 C 172.113281 -19.972656 165.671875 -30.789062 161.546875 -44.4375 C 157.421875 -58.09375 154.847656 -72.394531 153.828125 -87.34375 C 151.242188 -83.738281 148.535156 -80.003906 145.703125 -76.140625 C 142.867188 -72.273438 139.90625 -68.28125 136.8125 -64.15625 C 116.71875 -37.363281 95.332031 -20.097656 72.65625 -12.359375 C 49.988281 -4.628906 31.695312 -4.117188 17.78125 -10.828125 C 2.320312 -19.066406 -8.5 -29.753906 -14.6875 -42.890625 C -20.875 -56.035156 -23.453125 -73.945312 -22.421875 -96.625 C -21.390625 -117.75 -18.941406 -134.878906 -15.078125 -148.015625 C -11.210938 -161.160156 -7.347656 -171.597656 -3.484375 -179.328125 C 0.378906 -187.054688 2.570312 -192.984375 3.09375 -197.109375 C 4.125 -199.679688 5.410156 -200.96875 6.953125 -200.96875 C 11.078125 -202 16.742188 -203.15625 23.953125 -204.4375 C 31.171875 -205.726562 40.445312 -204.570312 51.78125 -200.96875 C 54.875 -199.9375 55.90625 -197.617188 54.875 -194.015625 C 54.363281 -190.921875 52.816406 -184.609375 50.234375 -175.078125 C 47.660156 -165.546875 45.210938 -154.984375 42.890625 -143.390625 C 40.578125 -131.796875 38.90625 -121.617188 37.875 -112.859375 C 35.8125 -94.304688 35.550781 -80.390625 37.09375 -71.109375 C 38.644531 -61.835938 43.03125 -57.457031 50.25 -57.96875 C 57.976562 -57.96875 67.640625 -63.765625 79.234375 -75.359375 C 90.828125 -86.953125 102.675781 -101.378906 114.78125 -118.640625 C 126.894531 -135.910156 137.972656 -153.175781 148.015625 -170.4375 C 158.066406 -187.695312 165.15625 -202 169.28125 -213.34375 C 170.3125 -218.488281 171.34375 -222.863281 172.375 -226.46875 C 173.40625 -230.082031 174.175781 -232.921875 174.6875 -234.984375 C 175.71875 -236.523438 177.007812 -237.8125 178.5625 -238.84375 C 182.675781 -239.875 189.242188 -240.257812 198.265625 -240 C 207.285156 -239.75 216.691406 -238.332031 226.484375 -235.75 C 230.085938 -234.71875 231.375 -232.398438 230.34375 -228.796875 C 228.800781 -224.160156 227 -217.078125 224.9375 -207.546875 C 222.875 -198.015625 220.554688 -188.09375 217.984375 -177.78125 C 216.429688 -170.570312 214.492188 -160.140625 212.171875 -146.484375 C 209.859375 -132.828125 208.3125 -118.65625 207.53125 -103.96875 C 206.757812 -89.28125 207.789062 -76.65625 210.625 -66.09375 C 213.46875 -55.53125 218.753906 -49.988281 226.484375 -49.46875 C 232.660156 -48.957031 239.867188 -50.242188 248.109375 -53.328125 C 256.359375 -56.421875 264.21875 -60.285156 271.6875 -64.921875 C 279.164062 -69.566406 284.707031 -73.691406 288.3125 -77.296875 Z M 288.3125 -77.296875 "/></g></g></g></svg>