<?xml version="1.0" encoding="UTF-8"?>
<svg version="1.1" xmlns="http://www.w3.org/2000/svg" width="227" height="222">
<path d="M0 0 C0.639375 0.33 1.27875 0.66 1.9375 1 C1.9375 3 1.9375 3 -0.0625 5.125 C-0.7225 5.74375 -1.3825 6.3625 -2.0625 7 C-1.56621094 6.62746094 -1.06992188 6.25492188 -0.55859375 5.87109375 C0.12074219 5.39800781 0.80007812 4.92492187 1.5 4.4375 C2.49193359 3.72400391 2.49193359 3.72400391 3.50390625 2.99609375 C7.59194578 1.32281914 11.02597778 2.29634953 15.08569336 3.79077148 C17.46712533 4.79718712 19.79624146 5.87712196 22.125 7 C22.95999023 7.39936768 23.79498047 7.79873535 24.65527344 8.21020508 C31.78616686 11.72676289 37.83197615 15.88748406 43.9375 21 C44.87529297 21.69609375 44.87529297 21.69609375 45.83203125 22.40625 C62.98432922 35.58178568 73.75949715 58.84503161 77.46875 79.6875 C80.48533743 103.40884661 76.6309098 126.77522546 64.33203125 147.375 C63.87183594 147.91125 63.41164063 148.4475 62.9375 149 C61.9475 149 60.9575 149 59.9375 149 C59.86756836 148.4423999 59.79763672 147.8847998 59.72558594 147.31030273 C56.91832298 124.94551879 56.91832298 124.94551879 48.9375 104 C48.45667969 103.06800781 47.97585937 102.13601562 47.48046875 101.17578125 C37.81550579 83.49817922 22.96521251 73.58395778 6.1875 63.4375 C-12.93851066 51.85623637 -12.93851066 51.85623637 -18.0625 42 C-19.35194843 35.9495112 -18.85144377 31.89299124 -17.0625 26 C-19.0425 25.34 -21.0225 24.68 -23.0625 24 C-28.21986066 31.48649128 -28.76151243 37.01563434 -28.0625 46 C-26.26341055 54.48489484 -21.03228892 60.0015561 -15.0625 66 C-14.26714844 66.80953125 -13.47179687 67.6190625 -12.65234375 68.453125 C-10.47152108 70.65215153 -8.27047217 72.82829015 -6.0625 75 C-4.39187295 76.66269685 -2.72531312 78.32948867 -1.0625 80 C-0.28390625 80.78117187 0.4946875 81.56234375 1.296875 82.3671875 C15.25034305 97.00464908 24.60706918 114.81914505 24.20703125 135.37109375 C23.44005124 153.07964214 17.29993384 170.53971875 9.9375 186.515625 C9.64875 187.14243164 9.36 187.76923828 9.0625 188.41503906 C6.72418208 191.709388 2.91504245 192.40903996 -0.875 193.125 C-20.63049229 196.15127026 -41.83154624 194.59215845 -60.0625 186 C-62.45703125 183.83984375 -62.45703125 183.83984375 -64.0625 182 C-63.35287109 181.32517578 -63.35287109 181.32517578 -62.62890625 180.63671875 C-56.95525177 175.11790084 -51.91339997 169.25066215 -47.0625 163 C-46.65209473 162.47132324 -46.24168945 161.94264648 -45.81884766 161.39794922 C-32.07565838 143.49528871 -21.83587521 123.03999998 -24.0625 100 C-26.13663173 90.25393784 -31.83373776 82.83184991 -37.85131836 75.14599609 C-45.33421219 65.57806424 -50.11720747 57.45748825 -49.0625 45 C-45.59970391 25.62104941 -30.8929432 11.87917257 -15.61547852 1.04052734 C-10.91126202 -2.11139385 -5.24795761 -1.71361881 0 0 Z " fill="#FFC634" transform="translate(133.0625,15)"/>
<path d="M0 0 C0.77214844 0.00902344 1.54429688 0.01804687 2.33984375 0.02734375 C2.90832031 0.03894531 3.47679688 0.05054688 4.0625 0.0625 C4.5575 1.5475 4.5575 1.5475 5.0625 3.0625 C4.17949219 3.53558594 3.29648438 4.00867188 2.38671875 4.49609375 C-5.76779878 8.95356175 -12.99316969 13.82362547 -19.9375 20.0625 C-20.66710937 20.70960937 -21.39671875 21.35671875 -22.1484375 22.0234375 C-32.02762237 31.29700185 -39.83711874 44.31340905 -40.47802734 58.06665039 C-40.56248245 65.97821727 -39.00831163 72.77916472 -35.9375 80.0625 C-35.27234375 81.67898437 -35.27234375 81.67898437 -34.59375 83.328125 C-33.74066953 85.38146986 -32.87374769 87.42916166 -31.98828125 89.46875 C-29.48445689 95.64919377 -28.95429967 101.22300335 -31.5625 107.5 C-33.79589823 112.14895306 -36.70798523 116.06531368 -39.9375 120.0625 C-40.55625 120.908125 -41.175 121.75375 -41.8125 122.625 C-44.2196315 125.38612143 -46.83285297 127.68132486 -49.6171875 130.0546875 C-52.17721882 132.26993346 -54.64604087 134.56949574 -57.125 136.875 C-61.27170146 140.65052818 -65.51879527 144.23420573 -69.9375 147.6875 C-70.48946045 148.12553955 -71.0414209 148.5635791 -71.61010742 149.01489258 C-75.57758507 152.0625 -75.57758507 152.0625 -78.9375 152.0625 C-92.60400324 128.15459731 -98.43242191 101.66682256 -91.9140625 74.375 C-90.26243301 68.77267278 -88.28556848 63.40938737 -85.9375 58.0625 C-85.50695312 57.06605469 -85.07640625 56.06960937 -84.6328125 55.04296875 C-79.86589376 44.76850829 -73.06543575 35.9207886 -64.9375 28.0625 C-64.2053125 27.34449219 -63.473125 26.62648438 -62.71875 25.88671875 C-46.18701486 10.40237094 -22.98416987 -0.35360261 0 0 Z " fill="#FFC635" transform="translate(109.9375,12.9375)"/>
<path d="M0 0 C12.26396172 4.43838615 21.60326386 11.09009083 30.96875 20.0625 C31.835 20.866875 32.70125 21.67125 33.59375 22.5 C53.11105994 43.55815019 60.89468891 67.94618792 60.25 96.3125 C59.65664635 111.48257511 55.1901066 131.15189959 44.96875 143.0625 C43.97875 143.0625 42.98875 143.0625 41.96875 143.0625 C41.89881836 142.5048999 41.82888672 141.9472998 41.75683594 141.37280273 C38.94957298 119.00801879 38.94957298 119.00801879 30.96875 98.0625 C30.48792969 97.13050781 30.00710937 96.19851562 29.51171875 95.23828125 C25.84386247 88.52962609 21.58552479 83.05292785 16.30078125 77.53515625 C13.96875 75.0625 13.96875 75.0625 12.19140625 72.60546875 C9.11538116 69.08615006 5.5053947 66.82847314 1.59375 64.3125 C0.79517578 63.78809326 -0.00339844 63.26368652 -0.82617188 62.72338867 C-4.51746787 60.30659142 -8.23005146 57.92789742 -11.9765625 55.59765625 C-30.99771825 43.74047867 -30.99771825 43.74047867 -35.03125 34.0625 C-36.50607789 26.44255589 -34.13940037 20.41240756 -30.03125 14.0625 C-22.45981766 3.43559116 -13.02366263 -4.0279369 0 0 Z " fill="#FFC531" transform="translate(151.03125,20.9375)"/>
<path d="M0 0 C0.639375 0.33 1.27875 0.66 1.9375 1 C1.9375 3 1.9375 3 -0.0625 5.125 C-0.7225 5.74375 -1.3825 6.3625 -2.0625 7 C-1.56621094 6.62746094 -1.06992188 6.25492188 -0.55859375 5.87109375 C2.91768186 3.45023388 5.05964103 2.01596107 9.375 1.9375 C13.76539201 3.24691516 17.82421725 4.99465807 21.9375 7 C18.9375 8 18.9375 8 15.6875 6.5 C15.14609375 6.2009375 14.6046875 5.901875 14.046875 5.59375 C9.56834581 4.33312697 5.82985025 5.50032939 1.875 7.71484375 C-6.43775163 14.00467842 -14.75172032 21.54202167 -16.43359375 32.39453125 C-16.61546299 39.01671136 -15.27299199 42.92060707 -11.0625 48 C-5.59108974 53.46108984 0.56927595 57.45037209 7.1875 61.375 C27.88106496 73.91534744 27.88106496 73.91534744 31.9375 80 C28.21086407 78.33471583 25.07476591 75.97671648 21.8125 73.5625 C16.30382412 69.53417463 10.6262064 65.96510756 4.75 62.5 C-4.0880409 57.23520056 -13.20665325 51.39696269 -18.0625 42 C-19.35194843 35.9495112 -18.85144377 31.89299124 -17.0625 26 C-19.0425 25.34 -21.0225 24.68 -23.0625 24 C-28.21986066 31.48649128 -28.76151243 37.01563434 -28.0625 46 C-26.26428489 54.48077126 -21.02984908 60.00344693 -15.0625 66 C-14.28261719 66.7940625 -13.50273438 67.588125 -12.69921875 68.40625 C-10.83517873 70.28684455 -8.95789081 72.15109016 -7.0625 74 C-10.57423065 74 -10.84501989 73.60771702 -13.2421875 71.25390625 C-13.83942627 70.66786621 -14.43666504 70.08182617 -15.05200195 69.47802734 C-15.98532349 68.52984131 -15.98532349 68.52984131 -16.9375 67.5625 C-17.56938232 66.92521973 -18.20126465 66.28793945 -18.85229492 65.63134766 C-27.32392732 56.8799446 -30.44821071 49.39230179 -30.51123047 37.27880859 C-30.24462076 26.62642962 -24.43680807 19.52319472 -16.94140625 12.37109375 C-12.00632862 8.30651828 -6.6328609 5.12568841 -1.0625 2 C-5.60708048 0.95635939 -9.40819886 0.21281424 -13.73046875 2.26953125 C-15.9288841 3.76193722 -18.02176046 5.29938372 -20.0625 7 C-20.7225 6.67 -21.3825 6.34 -22.0625 6 C-20.77232586 5.01886757 -19.48030894 4.04015801 -18.1875 3.0625 C-17.46820313 2.51722656 -16.74890625 1.97195312 -16.0078125 1.41015625 C-11.18924142 -2.08282399 -5.537231 -1.80807543 0 0 Z " fill="#FFFBF3" transform="translate(133.0625,15)"/>
<path d="M0 0 C0.33 0.99 0.66 1.98 1 3 C-1.26645058 4.34130761 -3.53760097 5.67316234 -5.8125 7 C-6.77639648 7.57234375 -6.77639648 7.57234375 -7.75976562 8.15625 C-12.66015625 11 -12.66015625 11 -16 11 C-15.36191406 10.59007812 -14.72382812 10.18015625 -14.06640625 9.7578125 C-13.24011719 9.21898437 -12.41382812 8.68015625 -11.5625 8.125 C-10.73878906 7.59132813 -9.91507812 7.05765625 -9.06640625 6.5078125 C-6.88961129 5.16165694 -6.88961129 5.16165694 -6 3 C-7.6396875 3.061875 -7.6396875 3.061875 -9.3125 3.125 C-13 3 -13 3 -16 1 C-10.61509359 0.08342019 -5.45769811 -0.11138159 0 0 Z " fill="#FFE9B3" transform="translate(114,13)"/>
<path d="M0 0 C-0.47409648 4.31730413 -3.03396703 6.33647461 -6.0625 9.25 C-6.98160156 10.14203125 -7.90070313 11.0340625 -8.84765625 11.953125 C-9.55792969 12.62859375 -10.26820312 13.3040625 -11 14 C-11.66 13.67 -12.32 13.34 -13 13 C-11.09659498 8.12252462 -5.95394039 0 0 0 Z " fill="#FFD66C" transform="translate(111,22)"/>
<path d="M0 0 C5.96564796 0.50771472 10.63809899 2.38592128 16 5 C12.28623659 6.23792114 11.35681399 5.22925938 7.984375 3.63671875 C4.51110093 2.5222627 1.53224875 3.31833796 -2 4 C-1.34 2.68 -0.68 1.36 0 0 Z " fill="#FFF6E3" transform="translate(139,17)"/>
</svg>
